<svg width="39" height="69" viewBox="0 0 39 69" fill="none" xmlns="http://www.w3.org/2000/svg">
<path d="M23.7 65.5C24.3667 62.7 24.9333 59.6 25.4 56.2C25.8667 52.8 26.1667 49.6666 26.3 46.8C26.1667 48 26.0333 49.3666 25.9 50.9C25.7667 52.4333 25.5667 54 25.3 55.6C25.1 57.1333 24.8333 58.6333 24.5 60.1C24.2333 61.5667 23.8667 62.8666 23.4 64C23.0667 63.2666 22.8667 62.5 22.8 61.7C22.8 60.8333 22.8 60 22.8 59.2C22.8 58.2 22.8667 57.0333 23 55.7C23.1333 54.3 23.2667 52.9 23.4 51.5C23.6 50.0333 23.7667 48.6 23.9 47.2C24.1 45.8 24.2333 44.6 24.3 43.6L25.1 42.7C25.1 42.5 25.0667 42.3333 25 42.2C25 42.0666 25 41.9333 25 41.8C25 41.6 25 41.4 25 41.2C25.0667 40.9333 25.1 40.6 25.1 40.2C25.1 38.1333 25.2 36 25.4 33.8C25.6667 31.5333 25.9333 29.3 26.2 27.1C26.5333 24.8333 26.8 22.6 27 20.4C27.2667 18.2 27.4 16.0333 27.4 13.9L26.4 14.7C26.0667 17.9 25.7333 21.2333 25.4 24.7C25.1333 27.9666 24.9 31.1666 24.7 34.3L24.9 25C24.9667 23.6 25.1333 21.9666 25.4 20.1C25.7333 18.1666 25.9667 16.4666 26.1 15C25.5667 15.3333 24.8 15.8 23.8 16.4C22.8667 17 21.7667 17.7 20.5 18.5C19.3 19.3 18.0333 20.1333 16.7 21C15.4333 21.8 14.2333 22.5666 13.1 23.3C12.0333 24.0333 11.1 24.7 10.3 25.3C9.5 25.9 9 26.3333 8.8 26.6C8.53333 26.0666 8.06667 25.7333 7.4 25.6C6.8 25.4 6.46667 25 6.4 24.4C6.6 23.8666 6.9 23.3666 7.3 22.9C7.7 22.3666 8.1 21.9 8.5 21.5L7.9 20.9C7.5 21.1 7 21.4 6.4 21.8C5.8 22.1333 5.16667 22.4666 4.5 22.8C3.9 23.0666 3.26667 23.3333 2.6 23.6C2 23.8 1.46667 23.9 1 23.9C0.333333 23.6333 0 23.2333 0 22.7C0 21.0333 0.866667 19.4 2.6 17.8C4.33333 16.1333 6.56667 14.4333 9.3 12.7C12.0333 10.9 15.0667 8.99998 18.4 6.99998C21.7333 4.93331 25 2.63331 28.2 0.0999756L37 3.69998C37.3333 4.56664 37.6 5.69998 37.8 7.09998C38 8.49998 38.1 9.66664 38.1 10.6V13.1C38.1 14.5666 38.0667 16 38 17.4C38 18.8 37.8333 20.2333 37.5 21.7C37.1 23.7666 36.7667 26.2666 36.5 29.2C36.2333 32.1333 36 35.2333 35.8 38.5C35.6 41.7 35.4 44.9 35.2 48.1C35.0667 51.2333 34.8667 54.0667 34.6 56.6C34.3333 59.1333 34 61.2 33.6 62.8C33.2 64.3333 32.7 65.1 32.1 65.1C31.9667 65.1 31.7667 65.0333 31.5 64.9C31.8333 63.5666 32.1667 62.1666 32.5 60.7C32.8333 59.2333 33 57.8333 33 56.5V54.1C32.8 55.8333 32.5667 57.5666 32.3 59.3C32.0333 61.1 31.6667 62.8666 31.2 64.6C30.9333 64.4667 30.6 64.4 30.2 64.4C29.6667 64.4 29.3 64.6333 29.1 65.1C28.9667 65.5667 28.8 66.0667 28.6 66.6C28.4667 67.2 28.2667 67.7333 28 68.2C27.7333 68.6666 27.2667 68.9 26.6 68.9C25.7333 68.9 25.1 68.5 24.7 67.7C24.3667 66.9 24.0333 66.1666 23.7 65.5ZM33.7 35.4C33.5667 38.5333 33.4333 41.7666 33.3 45.1C33.6333 41.7666 33.9 38.4666 34.1 35.2C34.3 32 34.6 28.8 35 25.6C34.2667 29 33.8333 32.2666 33.7 35.4ZM26.6 42.4C26.8667 40.4666 27.0333 38.5666 27.1 36.7C27.2333 34.8333 27.3333 33 27.4 31.2C27.4667 29.4 27.5333 27.6333 27.6 25.9C27.6 24.8333 27.6667 23.7666 27.8 22.7C27.4 25.6333 27.1333 28.5666 27 31.5C26.8667 35.1 26.7333 38.7333 26.6 42.4Z" fill="#10EA46"/>
</svg>
