<svg width="42" height="66" viewBox="0 0 42 66" fill="none" xmlns="http://www.w3.org/2000/svg">
<path d="M39.3 60.9C39.3 61.3 39.1333 61.6667 38.8 62C38.4667 62.3333 38.0667 62.6333 37.6 62.9C37.2 63.1667 36.7333 63.4 36.2 63.6L35 64.1C34.4 63.8333 33.7 63.6 32.9 63.4C32.1 63.2667 31.2333 63.1667 30.3 63.1C29.4333 63.0333 28.5667 62.9667 27.7 62.9C26.8333 62.9 26.0667 62.9 25.4 62.9C22.2667 62.9 19.1333 62.9667 16 63.1C12.9333 63.3 9.83333 63.4667 6.7 63.6C7.43333 63.6667 8.13333 63.7 8.8 63.7H11C12.9333 63.7 14.8667 63.6667 16.8 63.6C18.7333 63.5333 20.6667 63.5 22.6 63.5C24.3333 63.5 26.0333 63.5667 27.7 63.7C29.4333 63.8333 31.1667 64.0667 32.9 64.4C31.9 64.7333 30.3333 64.9667 28.2 65.1C26.1333 65.3 23.9333 65.4333 21.6 65.5C19.3333 65.6333 17.1333 65.7 15 65.7C12.8667 65.7667 11.2 65.8 10 65.8L9.2 64.7C9.06667 64.7 8.93333 64.7 8.8 64.7C8.73333 64.7667 8.63333 64.8 8.5 64.8C8.23333 64.8 7.96667 64.7667 7.7 64.7C7.43333 64.7 7.13333 64.7 6.8 64.7H6.1C5.9 64.7 5.7 64.7667 5.5 64.9C4.9 64.9 4.3 64.8667 3.7 64.8C3.16667 64.7333 2.6 64.7 2 64.7L0 54.8L2.3 53.6C4.9 51.8667 7.43333 50.1 9.9 48.3C12.4333 46.4333 14.7667 44.4333 16.9 42.3C19.1 40.1 21.0667 37.7667 22.8 35.3C24.6 32.7667 26.0667 29.9667 27.2 26.9L26.9 26.3C27.7 24.7 28.2667 23.2333 28.6 21.9C28.9333 20.5 29.1 19.1 29.1 17.7C29.1 15.3667 28.5667 13.8 27.5 13C26.4333 12.2 25.0667 11.8 23.4 11.8C21.1333 11.8 19.1667 12.4333 17.5 13.7C15.8333 14.9 14.4333 16.3333 13.3 18C12.9667 17.4667 12.4667 17.1333 11.8 17C11.2 16.8 10.9 16.4333 10.9 15.9C10.9 15.1667 11.2667 14.4333 12 13.7C12.8 12.9667 13.4333 12.4 13.9 12L13.3 11.1C13.0333 11.3 12.5 11.6667 11.7 12.2C10.9 12.6667 10.0667 13.2 9.2 13.8C8.33333 14.3333 7.5 14.8333 6.7 15.3C5.96667 15.7 5.46667 15.9 5.2 15.9C4.4 15.9 4 15.4667 4 14.6C4 12.8 4.63333 11.0667 5.9 9.4C7.16667 7.66666 8.7 6.16666 10.5 4.9C12.3667 3.56666 14.3667 2.5 16.5 1.7C18.6333 0.899999 20.6 0.5 22.4 0.5C25.0667 0.5 27.5333 0.8 29.8 1.4C32.1333 2 34.1667 2.96667 35.9 4.3C37.6333 5.63333 39 7.36666 40 9.5C41 11.5667 41.5 14.0667 41.5 17C41.5 20.6667 40.7667 24.3333 39.3 28C37.9 31.6667 36.0333 35.1333 33.7 38.4C31.3667 41.6667 28.7 44.7 25.7 47.5C22.7667 50.2333 19.7667 52.5333 16.7 54.4C17.3667 54.3333 18.1667 54.2667 19.1 54.2C20.1 54.1333 21.1333 54.0667 22.2 54C23.2667 53.9333 24.2667 53.9 25.2 53.9C26.2 53.8333 27.0333 53.8 27.7 53.8C28.6333 53.8 29.6333 53.9333 30.7 54.2C31.7667 54.4 32.6667 54.8 33.4 55.4L33.2 56C31.2667 55.8 29.3667 55.7 27.5 55.7C26.6333 55.7 25.6 55.7333 24.4 55.8C23.2667 55.8 22.1 55.8333 20.9 55.9C19.7 55.9667 18.5 56.0333 17.3 56.1C16.1667 56.1667 15.1667 56.2333 14.3 56.3V56.4C14.9667 56.4 15.8 56.4 16.8 56.4C17.8667 56.3333 18.9333 56.3 20 56.3C21.1333 56.2333 22.2 56.2 23.2 56.2C24.2 56.1333 25.0667 56.1 25.8 56.1C27 56.1 28.1667 56.1667 29.3 56.3C30.5 56.3667 31.7 56.4667 32.9 56.6C32.7 56.9333 32.6 57.2 32.6 57.4C32.6 57.9333 32.9333 58.2667 33.6 58.4C34.3333 58.5333 35.1 58.7 35.9 58.9C36.7667 59.0333 37.5333 59.2333 38.2 59.5C38.9333 59.7667 39.3 60.2333 39.3 60.9ZM2.8 52.6C4.53333 51.5333 6.46667 50.1 8.6 48.3C10.8 46.4333 12.9667 44.4 15.1 42.2C17.3 39.9333 19.3667 37.5333 21.3 35C23.2333 32.4667 24.8667 29.9333 26.2 27.4C25.2 29.6 23.8 31.9667 22 34.5C20.2667 37.0333 18.3 39.5 16.1 41.9C13.9667 44.2333 11.7333 46.3667 9.4 48.3C7.06667 50.2333 4.86667 51.6667 2.8 52.6ZM19.4 41.6C17.0667 43.9333 14.6667 46.1667 12.2 48.3C9.73333 50.4333 7.1 52.4 4.3 54.2L4.8 54.3C7.6 52.5667 10.1667 50.6 12.5 48.4C14.9 46.2 17.2 43.9333 19.4 41.6ZM15.9 53.1C17.1667 52.5 18.4333 51.4667 19.7 50L13.8 54.1C14.3333 53.8333 15.0333 53.5 15.9 53.1ZM2 65.3C2.13333 65.3 2.5 65.3 3.1 65.3C3.7 65.3667 4.33333 65.4333 5 65.5C5.66667 65.5667 6.26667 65.6333 6.8 65.7C7.4 65.8333 7.76667 65.9333 7.9 66L2.1 65.6L2 65.3ZM1.1 56.3L3.5 55.1L3.4 54.8C3 55.1333 2.56667 55.3667 2.1 55.5C1.63333 55.6333 1.2 55.8 0.8 56V56.3H1.1Z" fill="#10EA46"/>
</svg>
