<svg width="46" height="71" viewBox="0 0 46 71" fill="none" xmlns="http://www.w3.org/2000/svg">
<path d="M2.1 59.5001C2.56667 59.5001 3.03333 59.5334 3.5 59.6001C3.96667 59.6001 4.43333 59.6001 4.9 59.6001C6.3 60.6001 7.86667 61.3001 9.6 61.7001C11.3333 62.0334 13.0667 62.2001 14.8 62.2001C16 62.2001 17.6667 62.0334 19.8 61.7001C22 61.3001 24.1333 60.7334 26.2 60.0001C28.2667 59.2001 30.0667 58.2001 31.6 57.0001C33.1333 55.8001 33.9 54.4001 33.9 52.8001C33.9 51.6001 33.4667 50.3667 32.6 49.1001C31.8 47.8334 30.8 46.6001 29.6 45.4001C28.4667 44.2001 27.2667 43.1001 26 42.1001C24.8667 41.2334 23.9 40.4334 23.1 39.7001C23.8333 40.4334 24.7667 41.2667 25.9 42.2001C27.1667 43.2001 28.3333 44.3001 29.4 45.5001C30.5333 46.7001 31.5 47.9667 32.3 49.3001C33.1 50.5667 33.5 51.8001 33.5 53.0001C33.5 54.5334 32.7667 55.8667 31.3 57.0001C29.9 58.0667 28.2333 58.9667 26.3 59.7001C24.3667 60.3667 22.4 60.8667 20.4 61.2001C18.4 61.5334 16.8333 61.7001 15.7 61.7001C14.0333 61.7001 12.3667 61.5667 10.7 61.3001C9.1 60.9667 7.56667 60.4001 6.1 59.6001C6.5 59.5334 6.9 59.5001 7.3 59.5001C7.76667 59.4334 8.2 59.4001 8.6 59.4001C10.1333 59.4001 11.5333 59.4667 12.8 59.6001C14.1333 59.6667 15.4333 59.7001 16.7 59.7001C18.1 59.7001 19.5 59.5667 20.9 59.3001C22.3 59.0334 23.8333 58.5001 25.5 57.7001L27.1 58.1001C28.2333 57.4334 29.3 56.6667 30.3 55.8001C31.3667 54.9334 31.9 53.8001 31.9 52.4001C31.9 51.2667 31.2667 49.9334 30 48.4001C28.7333 46.8001 27.2667 45.2334 25.6 43.7001C23.9333 42.1667 22.2333 40.7334 20.5 39.4001C18.8333 38.0667 17.5667 37.1001 16.7 36.5L17.5 31.0001C18.1667 30.6667 18.9667 30.4001 19.9 30.2001C20.8333 30.0001 21.8 29.8001 22.8 29.6001C23.8 29.3334 24.7333 29.0001 25.6 28.6001C26.4667 28.2001 27.1667 27.6001 27.7 26.8001L27.1 26.5001C27.0333 26.7001 26.5333 26.9667 25.6 27.3001C24.7333 27.5667 23.7333 27.9001 22.6 28.3001C21.4667 28.6334 20.3667 28.9667 19.3 29.3001C18.3 29.6334 17.6 29.9001 17.2 30.1001L17.3 30.3001C17.3 30.4334 17.2 30.5001 17 30.5001L16.9 30.4001L16 37.2001C17 38.1334 18.3667 39.2667 20.1 40.6001C21.8333 41.8667 23.5333 43.2001 25.2 44.6001C26.9333 46.0001 28.4333 47.4334 29.7 48.9001C30.9667 50.3001 31.6 51.5667 31.6 52.7001C31.6 53.1667 31.4333 53.6334 31.1 54.1001C30.7667 54.5001 30.3333 54.9001 29.8 55.3001C29.3333 55.6334 28.8333 55.9667 28.3 56.3001C27.9 56.5667 27.5333 56.7667 27.2 56.9001C27.4667 56.7667 27.8 56.5667 28.2 56.3001C28.7333 55.9667 29.2333 55.6334 29.7 55.3001C30.1667 54.9001 30.5667 54.5001 30.9 54.1001C31.2333 53.6334 31.4 53.2001 31.4 52.8001C31.4 51.5334 30.7 50.1667 29.3 48.7001C27.9667 47.2334 26.4 45.8001 24.6 44.4001C22.8667 43.0001 21.1333 41.7001 19.4 40.5001C17.6667 39.2334 16.4333 38.2001 15.7 37.4001C15.9 36.1334 16 35.2001 16 34.6001C16 34.0001 16.0333 33.1667 16.1 32.1001C16.3 32.0334 16.4 31.7001 16.4 31.1001V29.9001C18.2667 29.1001 20 28.4667 21.6 28.0001C23.2 27.5334 24.6667 26.9667 26 26.3001C27.3333 25.5667 28.5333 24.6001 29.6 23.4001C30.7333 22.2001 31.8 20.4667 32.8 18.2001C32.8 16.2001 31.8667 14.6334 30 13.5001C28.1333 12.3001 25.7 11.7001 22.7 11.7001C21.7667 11.7001 20.7667 11.8334 19.7 12.1001C18.7 12.3667 17.6667 12.7001 16.6 13.1001C15.5333 13.4334 14.4667 13.8001 13.4 14.2001C12.4 14.6001 11.4667 14.9334 10.6 15.2001C10.5333 14.7334 10.3333 14.3334 10 14.0001C9.73333 13.6001 9.6 13.1667 9.6 12.7001C9.6 12.3001 9.83333 11.9667 10.3 11.7001C10.7667 11.3667 11.3 11.1001 11.9 10.9001C12.5667 10.7001 13.2 10.5334 13.8 10.4001C14.4 10.2667 14.8333 10.1667 15.1 10.1L14.8 8.90005C14.4 9.03338 13.6333 9.16672 12.5 9.30005C11.4333 9.36672 10.3333 9.40005 9.2 9.40005C8.06667 9.40005 7.03333 9.30005 6.1 9.10005C5.16667 8.83338 4.7 8.36672 4.7 7.70005C4.7 6.76672 5.56667 5.90005 7.3 5.10005C9.03333 4.23339 11 3.50005 13.2 2.90005C15.4 2.23339 17.5333 1.73339 19.6 1.40005C21.6667 1.00005 23.0333 0.800049 23.7 0.800049C26.0333 0.800049 28.4667 1.23338 31 2.10005C33.5333 2.90005 35.8333 4.06672 37.9 5.60005C40.0333 7.13339 41.7667 8.96672 43.1 11.1001C44.4333 13.1667 45.1 15.5001 45.1 18.1001V18.5C45.0333 20.4334 44.4667 22.2334 43.4 23.9001C42.4 25.5001 41.1667 26.9667 39.7 28.3001C38.2333 29.6334 36.6333 30.8001 34.9 31.8001C33.2333 32.8001 31.7333 33.6001 30.4 34.2001C32.2 35.1334 33.8667 36.3001 35.4 37.7001C36.9333 39.0334 38.2333 40.5001 39.3 42.1001C40.4333 43.7001 41.3 45.4001 41.9 47.2001C42.5667 48.9334 42.9 50.6667 42.9 52.4001C42.9 56.2001 41.8667 59.3001 39.8 61.7001C37.8 64.1001 35.2667 65.9667 32.2 67.3001C29.2 68.7001 25.9333 69.6667 22.4 70.2001C18.9333 70.7334 15.7 71.0001 12.7 71.0001C12.3 71.0001 11.5667 70.9334 10.5 70.8001C9.5 70.7334 8.43333 70.5667 7.3 70.3001C6.23333 70.1001 5.26667 69.8001 4.4 69.4001C3.6 69.0001 3.2 68.5001 3.2 67.9001L3.4 67.4001C6.93333 68.6667 10.6333 69.3001 14.5 69.3001C16.9667 69.3001 19.4 69.0334 21.8 68.5001C24.2 68.0334 26.5667 67.3667 28.9 66.5001C26.6333 67.2334 24.3 67.8334 21.9 68.3001C19.5667 68.7667 17.2 69.0001 14.8 69.0001C10.9333 69.0001 7.33333 68.3667 4 67.1001L4.7 66.0001C4.3 65.8001 3.83333 65.5001 3.3 65.1001C2.76667 64.7667 2.23333 64.3667 1.7 63.9001C1.23333 63.4334 0.833333 62.9667 0.5 62.5001C0.166667 62.0334 0 61.5334 0 61.0001C0 60.4667 0.233333 60.1001 0.7 59.9001C1.16667 59.6334 1.63333 59.5001 2.1 59.5001ZM38.2 60.0001C39.8667 58.0667 40.7 55.5001 40.7 52.3001C40.7 49.8334 40.1 47.5667 38.9 45.5001C37.7 43.5001 36.2667 41.6667 34.6 40.0001C36.3333 41.8667 37.7 43.9667 38.7 46.3001C39.7667 48.6334 40.3 51.1667 40.3 53.9001C40.3 55.0334 40 56.1667 39.4 57.3001C38.8667 58.3667 38.1667 59.4001 37.3 60.4001C36.5 61.3334 35.6 62.2001 34.6 63.0001C33.8 63.6667 33.0667 64.2001 32.4 64.6001C34.7333 63.2667 36.6667 61.7334 38.2 60.0001ZM32.1 64.8001C32.0333 64.8667 31.9667 64.9001 31.9 64.9001C31.9667 64.8334 32.0333 64.8001 32.1 64.8001Z" fill="#10EA46"/>
</svg>
