<svg width="45" height="67" viewBox="0 0 45 67" fill="none" xmlns="http://www.w3.org/2000/svg">
<path d="M40.1 40.3C40.1 39.9666 40.1333 39.5 40.2 38.9C40.3333 38.3 40.4333 37.6666 40.5 37C40.6333 36.3333 40.7667 35.7 40.9 35.1C40.9667 34.6333 41.0333 34.2 41.1 33.8C40.9667 34.8666 40.8333 35.9666 40.7 37.1C40.6333 38.3 40.6 39.4333 40.6 40.5H42.6C43 40.7666 43.4 41.1 43.8 41.5C44.2667 41.9 44.5 42.3666 44.5 42.9C44.5 43.6333 44.2 44.2333 43.6 44.7C43.0667 45.1666 42.5333 45.6666 42 46.2C41.8667 46.1333 41.6 46.1 41.2 46.1C40.8667 46.0333 40.4667 45.9666 40 45.9C39.6 45.8333 39.2 45.8 38.8 45.8C38.4 45.7333 38.1333 45.7 38 45.7V46.6L41.1 46.8C40.7 47.1333 40.3333 47.8333 40 48.9C39.7333 49.9666 39.5333 51.1333 39.4 52.4C39.2667 53.6 39.1333 54.8 39 56C38.9333 57.2 38.9 58.0333 38.9 58.5L38.7 62.1C37.7667 63.6333 37.1667 65.2333 36.9 66.9C36.6333 66.7666 36.3 66.6666 35.9 66.6C35.5 66.6 35.1 66.5666 34.7 66.5C34.3667 66.4333 34.0667 66.3 33.8 66.1C33.5333 65.9666 33.4 65.6666 33.4 65.2C33.4 64.9333 33.4667 64.6 33.6 64.2L32.7 63.9C32.3 64.5666 31.7667 65.1333 31.1 65.6C30.4333 66.0666 29.7 66.3 28.9 66.3C27.7667 66.3 27.0333 65.8666 26.7 65C26.4333 64.2 26.3 63.3333 26.3 62.4C26.3 60.6666 26.5 58.9333 26.9 57.2C27.3667 55.4 27.6 53.6333 27.6 51.9L27.5 47.7L26.9 47.6L26.4 46.5C25.1333 46.6333 23.7 46.7666 22.1 46.9C20.5667 47.0333 18.9667 47.1 17.3 47.1C15.4333 47.1 13.6 46.9666 11.8 46.7C10 46.4333 8.36667 45.9333 6.9 45.2C5.5 44.4666 4.33333 43.4666 3.4 42.2C2.53333 40.9333 2.1 39.2666 2.1 37.2C2.1 35.7333 2.23333 34.2666 2.5 32.8C2.76667 31.3333 2.96667 29.8666 3.1 28.4H2.5C2.3 29.8 2.03333 31.2333 1.7 32.7C1.36667 34.1 1.2 35.5 1.2 36.9C1.2 38.1 1.43333 39.2333 1.9 40.3C2.43333 41.3 2.7 42.2666 2.7 43.2L3.3 43.5C4.5 44.3666 5.5 45.0666 6.3 45.6C7.1 46.0666 7.83333 46.4333 8.5 46.7C9.16667 46.9666 9.8 47.1666 10.4 47.3C11.0667 47.3666 11.8 47.4 12.6 47.4C13.2 47.4 13.9 47.4 14.7 47.4C15.5 47.3333 16.4667 47.3 17.6 47.3L18.4 48C16.6 48 14.6333 47.9333 12.5 47.8C10.4333 47.6666 8.5 47.2666 6.7 46.6C4.96667 45.9333 3.5 44.9 2.3 43.5C1.1 42.0333 0.5 40.0333 0.5 37.5C0.5 35.6333 0.766667 33.8 1.3 32C1.83333 30.2 2.1 28.4333 2.1 26.7C2.1 24.4333 2.23333 22.2666 2.5 20.2C2.83333 18.0666 3.2 16 3.6 14C4 12 4.4 9.99998 4.8 7.99998C5.26667 5.99998 5.66667 3.93331 6 1.79998L8.2 1.69998C8.66667 1.83331 8.96667 2.09998 9.1 2.49997C9.3 2.89998 9.4 3.29998 9.4 3.69998L9.3 5.09998H10.2C10.3333 4.69998 10.5333 4.23331 10.8 3.69998C11.0667 3.09998 11.3667 2.53331 11.7 1.99997C12.0333 1.46664 12.4 1.03331 12.8 0.699974C13.2667 0.299975 13.7667 0.0999756 14.3 0.0999756C14.9 0.0999756 15.3667 0.399976 15.7 0.999976C16.0333 1.59998 16.2667 2.29998 16.4 3.09998C16.5333 3.83331 16.6 4.59998 16.6 5.39998C16.6667 6.13331 16.7 6.69998 16.7 7.09997C16.7 8.89998 16.5667 10.7 16.3 12.5C16.1 14.3 15.8333 16.1 15.5 17.9C15.2333 19.7 14.9667 21.5 14.7 23.3C14.5 25.1 14.4 26.9333 14.4 28.8C13.8667 29.7333 13.5333 30.8333 13.4 32.1C13.3333 33.3666 13.3 34.5333 13.3 35.6C13.5667 35.7333 14.2 35.8 15.2 35.8C15.8 35.8 16.4 35.8 17 35.8C17.6 35.7333 18.0333 35.7 18.3 35.7L18.9 36C20.6333 36 22.3667 36.0666 24.1 36.2C25.8333 36.2666 27.5667 36.3666 29.3 36.5C29.3667 36.1 29.4667 35.1666 29.6 33.7C29.8 32.2333 30.0333 30.7333 30.3 29.2C30.6333 27.6666 30.9667 26.3 31.3 25.1C31.7 23.8333 32.1333 23.2 32.6 23.2C32.8 23.2 33.0333 23.2666 33.3 23.4L32.6 28.4C33 26.6666 33.4333 25 33.9 23.4L35.4 23.7C35.4 23.1 35.6 22.6333 36 22.3C36.4667 21.9 36.9667 21.7 37.5 21.7C38.1667 21.7 38.8 21.8666 39.4 22.2C40.0667 22.5333 40.6333 22.9333 41.1 23.4C40.7 24.0666 40.3333 25.0666 40 26.4C39.6667 27.7333 39.3667 29.1333 39.1 30.6C38.8333 32.0666 38.6 33.5 38.4 34.9C38.2 36.3 38.0333 37.4 37.9 38.2L38.3 38.3C38.6333 36.1666 39.0333 33.7666 39.5 31.1C40.0333 28.3666 40.7667 26 41.7 24C41.8333 24.4 42 24.8 42.2 25.2C42.4667 25.5333 42.6 25.9333 42.6 26.4C42.6 27.3333 42.4333 28.4 42.1 29.6C41.7667 30.7333 41.5333 31.7666 41.4 32.7L40.2 32.4C40.2 32.8 40.1667 33.3333 40.1 34C40.0333 34.6666 39.9667 35.4 39.9 36.2C39.8333 36.9333 39.7333 37.6333 39.6 38.3C39.5333 38.9666 39.5 39.5 39.5 39.9L40.1 40.3ZM27.6 45.3C26 45.3 24.4 45.2 22.8 45C21.2 44.8 19.6 44.7 18 44.7H11.1C11.8333 44.8333 12.5667 44.9333 13.3 45C14.0333 45 14.7667 45 15.5 45H17.7L18 45.3L27.6 45.5V45.3ZM38.8 47.8C38.8 48 38.7333 48.3666 38.6 48.9C38.5333 49.3666 38.4333 49.8666 38.3 50.4C38.2333 50.9333 38.1667 51.4666 38.1 52C38.0333 52.5333 38 52.9333 38 53.2V53.3C38 53.2333 38.0667 53.2 38.2 53.2C38.3333 53.2 38.4 53.2333 38.4 53.3H38.6C38.6 53.1 38.6333 52.7333 38.7 52.2C38.8333 51.6 38.9667 51 39.1 50.4C39.2333 49.8 39.3667 49.2333 39.5 48.7C39.6333 48.1 39.7 47.7 39.7 47.5L38.8 47.8ZM19.2 38.1C19.7333 38.3666 20.5333 38.5333 21.6 38.6C22.6667 38.6666 23.8 38.7 25 38.7H27.8C28.7333 38.7 29.5 38.6666 30.1 38.6L19.2 38.1ZM12.5 37.4C13.6333 37.6666 14.7333 37.8333 15.8 37.9C16.9333 37.9 18.0667 37.9666 19.2 38.1C18.2 37.8333 17.1 37.6666 15.9 37.6C14.7667 37.4666 13.6667 37.4 12.6 37.4H12.5ZM19.1 47.4H20.5C21.2333 47.4 21.9 47.4333 22.5 47.5C23.1667 47.5 23.8333 47.5333 24.5 47.6L19.7 47.9L19.1 47.4ZM7.4 44.1C8 44.2333 8.7 44.4 9.5 44.6C8.63333 44.2666 7.93333 44.0666 7.4 44C6.86667 43.8666 6.23333 43.5333 5.5 43C6.16667 43.6 6.8 43.9666 7.4 44.1ZM31.4 36.7C31.6 36.1666 31.7 35.7 31.7 35.3V34.4L31.3 36.7H31.4Z" fill="#10EA46"/>
</svg>
