<svg width="50" height="70" viewBox="0 0 50 70" fill="none" xmlns="http://www.w3.org/2000/svg">
<path d="M16.6 5.30003L18.7 4.90003C20.1 4.90003 21.4667 4.86669 22.8 4.80003C24.2 4.73336 25.6333 4.63336 27.1 4.50003C26.3667 4.50003 25.5333 4.53336 24.6 4.60002C23.7333 4.60002 22.8667 4.60002 22 4.60002H18.6C17.9333 4.73336 17.4667 4.80003 17.2 4.80003C16.4 4.80003 15.8667 4.53336 15.6 4.00003L16.2 2.80002C17.6667 2.80002 18.7 2.76669 19.3 2.70002C19.9 2.63336 20.4667 2.56669 21 2.50003L21.3 3.70002C22.4333 3.36669 23.5667 3.16669 24.7 3.10003C25.9 3.03336 27.0667 3.00003 28.2 3.00003C29.3333 3.00003 30.4667 2.96669 31.6 2.90003C32.8 2.83336 33.9667 2.60002 35.1 2.20003V1.60003C30.5667 2.20003 26.0667 2.50003 21.6 2.50003C25.3333 2.16669 29.0667 1.73336 32.8 1.20003C36.6 0.666692 40.4667 0.400024 44.4 0.400024C45.4667 1.20003 46.7667 1.60003 48.3 1.60003L48.2 2.10003C48.2 2.36669 48.2 2.63336 48.2 2.90003C48.2667 3.10003 48.3 3.36669 48.3 3.70002C48.3 4.16669 48.2 4.53336 48 4.80003C47.8667 5.06669 47.4667 5.20003 46.8 5.20003V6.10003C47.4667 6.50003 48 7.06669 48.4 7.80002C48.8667 8.46669 49.1 9.20002 49.1 10C49.1 10.7334 48.7333 11.3334 48 11.8C47.3333 12.2 46.4667 12.5334 45.4 12.8C44.3333 13.0667 43.1333 13.2334 41.8 13.3C40.5333 13.3667 39.2667 13.4 38 13.4C36.8 13.4 35.7 13.4 34.7 13.4C33.7 13.3334 32.9 13.3 32.3 13.3C30.6333 13.3 28.9 13.3334 27.1 13.4C25.3667 13.4667 23.6333 13.5 21.9 13.5C20.7667 13.5 19.9667 13.8334 19.5 14.5C19.0333 15.1667 18.7 16 18.5 17C18.3667 18 18.2667 19.0667 18.2 20.2C18.2 21.3334 18.1333 22.3334 18 23.2C18.8 23.8 20.1 24.2 21.9 24.4C23.7 24.5334 25.6667 24.7334 27.8 25C30 25.2667 32.2333 25.7 34.5 26.3C36.8333 26.9 38.9333 27.9 40.8 29.3C42.7333 30.6334 44.3 32.5 45.5 34.9C46.7667 37.3 47.4 40.4334 47.4 44.3C47.4 48.0334 46.5333 51.4667 44.8 54.6C43.1333 57.7334 40.9333 60.4334 38.2 62.7C35.4667 64.9 32.3667 66.6 28.9 67.8C25.4333 69.0667 21.9667 69.7 18.5 69.7C17.3 69.7 15.6667 69.5334 13.6 69.2C11.5333 68.9334 9.46667 68.4334 7.4 67.7C5.4 67.0334 3.66667 66.1334 2.2 65C0.733333 63.9334 0 62.6 0 61C0 60.4667 0.3 60.0667 0.9 59.8C2.36667 62.3334 4.43333 64.2667 7.1 65.6C9.76667 66.8667 12.5333 67.5667 15.4 67.7C12.6 67.5 9.96667 66.7667 7.5 65.5C4.96667 64.1667 3.06667 62.2 1.8 59.6L3 59.2C2.66667 58.7334 2.36667 58.2667 2.1 57.8C1.83333 57.2667 1.63333 56.7334 1.5 56.2C1.56667 55.6667 1.73333 55.0667 2 54.4C2.26667 53.6667 2.76667 53.3 3.5 53.3C4.83333 53.3 5.76667 53.7334 6.3 54.6C6.9 55.4 7.56667 56.3 8.3 57.3C9.1 58.2334 10.1667 59.1334 11.5 60C12.8333 60.8 14.9667 61.2 17.9 61.2C19.7667 61.2 21.8 60.8334 24 60.1C26.2667 59.3667 28.3667 58.3667 30.3 57.1C32.3 55.7667 33.9667 54.2334 35.3 52.5C36.6333 50.7 37.3667 48.7334 37.5 46.6C37.1667 48.6667 36.3667 50.5667 35.1 52.3C33.8333 53.9667 32.2667 55.4334 30.4 56.7C28.6 57.9 26.6333 58.8334 24.5 59.5C22.4333 60.1667 20.4333 60.5 18.5 60.5C17.5667 60.5 16.5333 60.4667 15.4 60.4C14.3333 60.2667 13.2667 60.0334 12.2 59.7C11.2 59.3 10.3 58.8 9.5 58.2C8.7 57.5334 8.13333 56.6667 7.8 55.6C8.73333 55.8 9.56667 56.0667 10.3 56.4C11.0333 56.7334 11.7667 57.0667 12.5 57.4C13.2333 57.6667 14 57.9334 14.8 58.2C15.6 58.4 16.5667 58.5 17.7 58.5H19.2C19.6667 58.5 20.1667 58.4334 20.7 58.3V59.2C22.5 58.8 24.3 58.2 26.1 57.4C27.9667 56.5334 29.6667 55.5 31.2 54.3C32.7333 53.0334 33.9667 51.6 34.9 50C35.9 48.3334 36.4 46.4667 36.4 44.4C36.4 42.8667 36.0333 41.4 35.3 40C34.5667 38.6 33.5333 37.5334 32.2 36.8L31.9 37.4C32.9667 37.9334 33.8333 38.8 34.5 40C35.2333 41.2 35.6 42.4 35.6 43.6C35.6 47 34.6333 49.8 32.7 52C31.1 53.8667 29.0667 55.3667 26.6 56.5C27.4 56.1 28.1667 55.6667 28.9 55.2C30.1 54.4 31.1333 53.4667 32 52.4C32.9333 51.3334 33.6667 50.1667 34.2 48.9C34.8 47.6334 35.1 46.3 35.1 44.9C35.1 42.5 34.3333 40.6 32.8 39.2C31.2667 37.8 29.4 36.7 27.2 35.9C25.0667 35.1 22.8 34.5667 20.4 34.3C18 33.9667 15.9 33.7 14.1 33.5C12.8333 33.3667 11.6667 33.2334 10.6 33.1C9.6 32.9 8.73333 32.5667 8 32.1C7.26667 31.6334 6.7 30.9667 6.3 30.1C5.9 29.2334 5.7 28.0334 5.7 26.5C5.7 25.4334 5.8 24.0334 6 22.3C6.26667 20.5 6.56667 18.7 6.9 16.9C7.3 15.0334 7.7 13.2334 8.1 11.5C8.5 9.76669 8.9 8.36669 9.3 7.30002C9.5 7.63336 9.76667 7.80002 10.1 7.80002C10.4333 7.80002 10.7667 7.83336 11.1 7.90003C11.4333 7.90003 11.7 7.96669 11.9 8.10003C12.1667 8.23336 12.3 8.60002 12.3 9.20002C12.3 9.86669 12.2 10.5334 12 11.2C11.8 11.8 11.6 12.4 11.4 13L12.3 13.3C12.6333 12.7 12.9333 12.1334 13.2 11.6C13.5333 11 13.9 10.4334 14.3 9.90003C14.0333 9.43336 13.9 8.96669 13.9 8.50003C13.9 7.76669 14.1 7.13336 14.5 6.60003C14.9667 6.00003 15.2333 5.33336 15.3 4.60002L16.6 5.30003ZM42.5 55C39.9 58.4 36.7 61.1334 32.9 63.2C29.1 65.3334 25.0333 66.7 20.7 67.3C25.1 66.7667 29.2 65.5 33 63.5C36.8 61.5667 39.9667 58.7334 42.5 55ZM32.6 11.1C31.8667 11.0334 31.0333 11 30.1 11H26.1C26.5 11.2 27.4333 11.3 28.9 11.3C29.9667 11.3 31.0333 11.2667 32.1 11.2C32.7 11.2 33.2 11.1667 33.6 11.1C33.4 11.1 33.0667 11.1 32.6 11.1ZM19.2 12L19.7 11.5H15.3L19.2 12Z" fill="#10EA46"/>
</svg>
