<svg width="49" height="67" viewBox="0 0 49 67" fill="none" xmlns="http://www.w3.org/2000/svg">
<path d="M45.6 44.5001L45.7 42.6001C44.7667 40.0667 43.4333 37.9 41.7 36.1C40.0333 34.2334 38.1 32.6001 35.9 31.2001C33.7667 29.8001 31.4667 28.6001 29 27.6001C26.6 26.6001 24.2333 25.7001 21.9 24.9001L23.5 24.8C25.7667 24.8 28.0667 25.3 30.4 26.3001C32.7333 27.3 34.9667 28.5667 37.1 30.1C39.2333 31.6334 41.1667 33.4001 42.9 35.4001C44.7 37.3334 46.1 39.2334 47.1 41.1001L46.4 43.8001L46 45.4001C46.1333 46.0001 46.2333 46.6334 46.3 47.3001C46.3667 47.9001 46.4 48.5001 46.4 49.1001C46.4 52.4334 45.3333 55.3667 43.2 57.9001L43.4 58.1001C44.5333 56.9667 45.3667 55.5667 45.9 53.9001C46.4333 52.2334 46.7 50.6001 46.7 49.0001C46.7 48.3334 46.6667 47.7334 46.6 47.2001C46.6 46.6001 46.5333 46.0001 46.4 45.4001C46.7333 45.0667 46.9667 44.5667 47.1 43.9001C47.2333 43.1667 47.3333 42.5334 47.4 42C47.9333 43.1334 48.3333 44.3001 48.6 45.5C48.8667 46.7 49 47.9001 49 49.1001C49 52.0334 48.4 54.6334 47.2 56.9001C46 59.1001 44.4333 60.9667 42.5 62.5001C40.5667 63.9667 38.3333 65.0667 35.8 65.8C33.2667 66.6 30.7 67.0001 28.1 67.0001C24.1 67.0001 20.3667 66.3334 16.9 65.0001C13.5 63.7334 10.5333 61.9334 8 59.6001C5.53333 57.2667 3.56667 54.4667 2.1 51.2001C0.7 47.9334 0 44.3334 0 40.4001C0 36.2001 0.8 32.1334 2.4 28.2001C4.06667 24.2001 6.23333 20.4667 8.9 17.0001C11.5667 13.4667 14.6 10.3001 18 7.50005C21.4667 4.63338 25 2.23338 28.6 0.300049C29.1333 0.766717 29.4667 1.20005 29.6 1.60005C29.7333 2.00005 29.8 2.36671 29.8 2.70005C29.8 3.03338 29.6 3.43338 29.2 3.90005C28.8 4.30005 28.3 4.70005 27.7 5.10005C27.1667 5.50005 26.6333 5.86672 26.1 6.20005C25.5667 6.53338 25.2 6.76672 25 6.90005L25.6 7.80005C26.7333 7.20005 27.9 6.70005 29.1 6.30005C30.3 5.90005 31.5333 5.70005 32.8 5.70005C33.0667 5.70005 33.5333 5.80005 34.2 6.00005C34.8667 6.20005 35.2 6.53338 35.2 7.00005C33.2667 8.46672 31.2 10.1667 29 12.1001C26.8667 13.9667 24.8333 15.8334 22.9 17.7001C20.9667 19.5667 19.2667 21.3334 17.8 23.0001C16.4667 24.5334 15.5667 25.7667 15.1 26.7001C15.6333 26.1667 16.3667 25.8001 17.3 25.6001C18.2333 25.4001 19.0667 25.1667 19.8 24.9001C22.3333 25.7667 24.9 26.7 27.5 27.7001C30.1 28.7 32.5333 29.9334 34.8 31.4001C37.1333 32.8667 39.2 34.6001 41 36.6001C42.8667 38.5334 44.3 40.9 45.3 43.7001L45.6 44.5001ZM12.3 41C12.3 43.1334 12.7667 45.0667 13.7 46.8001C14.6333 48.4667 15.8667 49.9334 17.4 51.2001C18.9333 52.4667 20.6667 53.4334 22.6 54.1001C24.6 54.7667 26.6333 55.1001 28.7 55.1001C29.5667 55.1001 30.5 55.0001 31.5 54.8001C32.5667 54.6001 33.5333 54.2667 34.4 53.8001C35.2667 53.2667 35.9667 52.6334 36.5 51.9001C37.1 51.1001 37.4 50.1334 37.4 49.0001C37.4 47.2001 36.9667 45.6667 36.1 44.4001C35.3 43.0667 34.2333 41.9334 32.9 41C31.6333 40.0667 30.2667 39.2667 28.8 38.6001C27.3333 37.9334 25.9333 37.3334 24.6 36.8C23.3333 36.2 22.2667 35.6667 21.4 35.2001C20.6 34.7334 20.2 34.2001 20.2 33.6001C20.2 33.4667 20.2667 33.2667 20.4 33C23.6667 33.9334 26.8333 35.2334 29.9 36.9001C32.9667 38.5001 35.5333 40.6 37.6 43.2001C35.6667 40.5334 33.2 38.3667 30.2 36.7001C27.2 35.0334 24.1333 33.7 21 32.7001C21.2 32.4334 21.3 32.1334 21.3 31.8001C21.3 31.3334 20.9667 31.0001 20.3 30.8C19.7 30.5334 19 30.2667 18.2 30.0001C17.4 29.7334 16.6333 29.4334 15.9 29.1C15.2333 28.7 14.8667 28.1001 14.8 27.3001C13.9333 29.1667 13.3 31.4334 12.9 34.1001C12.5 36.7001 12.3 39.0001 12.3 41ZM29.1 66.0001C26.3667 66.0001 23.6667 65.7001 21 65.1001C18.3333 64.5001 15.8333 63.6001 13.5 62.4001C11.2333 61.2001 9.16667 59.6667 7.3 57.8001C5.5 55.9334 4.06667 53.7334 3 51.2001L2.7 51.8001C3.76667 54.4001 5.2 56.6334 7 58.5001C8.8 60.3667 10.8667 61.9001 13.2 63.1001C15.5333 64.3001 18.0333 65.1667 20.7 65.7001C23.3667 66.3001 26.0667 66.6001 28.8 66.6001C31.6667 66.6001 34.3 66.1334 36.7 65.2001C39.1 64.2667 41.3667 62.8334 43.5 60.9001L43.8 60.0001C43 61.0001 42.0333 61.8334 40.9 62.5001C39.7 63.2334 38.4333 63.8667 37.1 64.4001C35.7667 64.9334 34.4 65.3334 33 65.6001C31.6667 65.8667 30.3667 66.0001 29.1 66.0001ZM42.5 58.5001C40.4333 60.6334 38.2 62.1334 35.8 63.0001C33.4667 63.9334 30.8333 64.4001 27.9 64.4001C26.6333 64.4001 25.3667 64.3001 24.1 64.1001C22.9 63.9667 21.7 63.7001 20.5 63.3001C22.8333 64.2334 25.4 64.7001 28.2 64.7001C31 64.7001 33.6667 64.2001 36.2 63.2001C38.7333 62.2667 40.9667 60.8001 42.9 58.8001L42.5 58.5001ZM40.1 50.2001L39.6 48.7001C39.5333 50.2334 39.1667 51.5334 38.5 52.6001C37.8333 53.6667 36.9667 54.5334 35.9 55.2001C34.9 55.8667 33.7333 56.3334 32.4 56.6001C31.1333 56.8667 29.8333 57.0001 28.5 57.0001L29.6 57.1001C33 57.1001 35.8 55.9001 38 53.5001L40.1 50.2001Z" fill="#10EA46"/>
</svg>
