<svg width="20" height="20" viewBox="0 0 20 20" fill="none" xmlns="http://www.w3.org/2000/svg">
<path d="M13.6667 6.29328L2 17.96M15.3333 12.1266H7.83333M5.83333 15.46H11.4478C11.6515 15.46 11.7534 15.46 11.8493 15.4369C11.9344 15.4165 12.0157 15.3828 12.0902 15.3371C12.1743 15.2856 12.2464 15.2136 12.3905 15.0694L16.5833 10.8766C16.7825 10.6775 16.882 10.5779 16.9622 10.4897C18.6957 8.58272 18.6957 5.67051 16.9622 3.76347C16.882 3.67531 16.7825 3.57574 16.5833 3.37661C16.3842 3.17748 16.2847 3.07791 16.1965 2.99778C14.2894 1.26431 11.3772 1.26431 9.47017 2.99778C9.382 3.07791 9.2825 3.17748 9.08333 3.37661L4.89052 7.56942C4.7464 7.71354 4.67433 7.78561 4.6228 7.86971C4.57711 7.94427 4.54344 8.02555 4.52302 8.11055C4.5 8.20647 4.5 8.30839 4.5 8.51222V14.1266C4.5 14.5933 4.5 14.8266 4.59083 15.005C4.67073 15.1617 4.79821 15.2892 4.95501 15.3691C5.13327 15.46 5.36662 15.46 5.83333 15.46Z" stroke="white" stroke-opacity="0.5" stroke-width="2" stroke-linecap="round" stroke-linejoin="round"/>
</svg>
