<svg width="20" height="20" viewBox="0 0 20 20" fill="none" xmlns="http://www.w3.org/2000/svg">
<path d="M8 15.0349V5.33106C8 4.92977 8 4.72913 8.073 4.5664C8.13735 4.42296 8.24097 4.30064 8.37189 4.21358C8.52041 4.11482 8.71832 4.08183 9.11417 4.01587L16.4475 2.79364C16.9816 2.70462 17.2487 2.66011 17.4568 2.73742C17.6395 2.80526 17.7926 2.93496 17.8895 3.10397C18 3.29657 18 3.56732 18 4.10883V13.3682M8 15.0349C8 16.4156 6.88071 17.5349 5.5 17.5349C4.11929 17.5349 3 16.4156 3 15.0349C3 13.6542 4.11929 12.5349 5.5 12.5349C6.88071 12.5349 8 13.6542 8 15.0349ZM18 13.3682C18 14.7489 16.8807 15.8682 15.5 15.8682C14.1192 15.8682 13 14.7489 13 13.3682C13 11.9875 14.1192 10.8682 15.5 10.8682C16.8807 10.8682 18 11.9875 18 13.3682Z" stroke="white" stroke-opacity="0.5" stroke-width="2" stroke-linecap="round" stroke-linejoin="round"/>
</svg>
