<svg width="20" height="20" viewBox="0 0 20 20" fill="none" xmlns="http://www.w3.org/2000/svg">
<path d="M10.0039 0C15.5157 0 20 4.48459 20 9.99692C20 15.5127 15.5157 20 10.0039 20C4.48774 20 1.11759e-06 15.5127 1.11759e-06 9.99692C1.11759e-06 4.48459 4.48774 0 10.0039 0ZM15.0767 13.6702C13.9178 13.3174 12.7295 13.1385 11.5451 13.1385C9.53357 13.1385 7.54774 13.6483 5.80138 14.6132C5.69751 14.6698 5.60308 14.857 5.56072 15.09C5.51836 15.3229 5.53521 15.5624 5.60321 15.687C5.68905 15.8469 5.86321 15.9502 6.04702 15.9502C6.1381 15.9502 6.21816 15.9298 6.29823 15.8865C7.90138 15.0053 9.71567 14.5395 11.5451 14.5395C12.6504 14.5395 13.7354 14.7031 14.7692 15.0253C14.8195 15.0406 14.8713 15.0484 14.9231 15.0484C15.1495 15.0485 15.346 14.9043 15.4119 14.6903C15.5009 14.3978 15.3168 13.7487 15.0767 13.6702ZM15.5128 9.98708C14.221 9.63593 12.8861 9.45784 11.545 9.45784C9.13423 9.45784 6.74026 10.0412 4.62039 11.1456C4.4718 11.221 4.3623 11.3489 4.31213 11.5056C4.26125 11.6644 4.27659 11.8351 4.356 11.9874C4.54518 12.3576 4.7663 12.6064 4.90636 12.6064C5.00564 12.6064 5.10144 12.5826 5.19685 12.535C7.16531 11.5099 9.30112 10.9902 11.5451 10.9902C12.7933 10.9902 14.0179 11.1543 15.1837 11.4777C15.238 11.4924 15.2936 11.4998 15.349 11.4998C15.6295 11.4999 15.8767 11.3104 15.9498 11.0399C16.0435 10.6881 15.8294 10.0732 15.5128 9.98708ZM15.6245 7.58072C15.6837 7.59534 15.7442 7.60269 15.8044 7.60269C16.1433 7.60275 16.437 7.3737 16.5186 7.04616C16.6209 6.63154 16.3614 6.1499 15.9858 6.05528C14.5247 5.69639 13.0307 5.51443 11.5451 5.51443C8.66931 5.51443 5.91515 6.16098 3.35817 7.43652C3.18059 7.52413 3.0482 7.67534 2.98525 7.86229C2.9223 8.04944 2.9362 8.25088 3.02407 8.42885C3.1438 8.66852 3.40256 8.92656 3.68774 8.92656C3.79771 8.92656 3.91062 8.90079 4.01062 8.85384C6.35941 7.67869 8.89436 7.08282 11.545 7.08282C12.9073 7.08288 14.2797 7.25036 15.6245 7.58072Z" fill="#191919"/>
</svg>
