<svg width="20" height="20" viewBox="0 0 20 20" fill="none" xmlns="http://www.w3.org/2000/svg">
<path d="M2 10.031H18.6667M2 5.86434H6.16667M14.5 5.86434H18.6667M2 14.1977H6.16667M14.5 14.1977H18.6667M6.16667 18.3643V1.69768M14.5 18.3643V1.69768M6 18.3643H14.6667C16.0668 18.3643 16.7668 18.3643 17.3017 18.0918C17.7721 17.8522 18.1545 17.4698 18.3942 16.9993C18.6667 16.4645 18.6667 15.7645 18.6667 14.3643V5.69768C18.6667 4.29754 18.6667 3.59748 18.3942 3.0627C18.1545 2.59229 17.7721 2.20984 17.3017 1.97016C16.7668 1.69768 16.0668 1.69768 14.6667 1.69768H6C4.59987 1.69768 3.8998 1.69768 3.36503 1.97016C2.89462 2.20984 2.51217 2.59229 2.27248 3.0627C2 3.59748 2 4.29754 2 5.69768V14.3643C2 15.7645 2 16.4645 2.27248 16.9993C2.51217 17.4698 2.89462 17.8522 3.36503 18.0918C3.8998 18.3643 4.59987 18.3643 6 18.3643Z" stroke="white" stroke-opacity="0.5" stroke-width="2" stroke-linecap="round" stroke-linejoin="round"/>
</svg>
