<svg width="20" height="20" viewBox="0 0 20 20" fill="none" xmlns="http://www.w3.org/2000/svg">
<path d="M19.582 4.54937C19.352 3.74312 18.674 3.1075 17.814 2.89188C16.254 2.5 10 2.5 10 2.5C10 2.5 3.746 2.5 2.186 2.89188C1.326 3.1075 0.648 3.74312 0.418 4.54937C-2.98023e-08 6.01187 0 10 0 10C0 10 -2.98023e-08 13.9881 0.418 15.4506C0.648 16.2569 1.326 16.8925 2.186 17.1081C3.746 17.5 10 17.5 10 17.5C10 17.5 16.254 17.5 17.814 17.1081C18.675 16.8925 19.352 16.2569 19.582 15.4506C20 13.9881 20 10 20 10C20 10 20 6.01187 19.582 4.54937ZM8 13.2475V6.7525L14 10L8 13.2475Z" fill="#191919"/>
</svg>
